<?xml version="1.0" encoding="iso-8859-1"?>
<!-- Generator: Adobe Illustrator 19.0.0, SVG Export Plug-In . SVG Version: 6.00 Build 0)  -->
<svg version="1.1" id="Layer_1" xmlns="http://www.w3.org/2000/svg" xmlns:xlink="http://www.w3.org/1999/xlink" x="0px" y="0px"
	 viewBox="0 0 512 512" style="enable-background:new 0 0 512 512;" xml:space="preserve">
<path style="fill:#FF6243;" d="M445.63,185.202v-16.359c0-71.805-58.749-130.554-130.554-130.554H195.467
	c-18.978,0-36.494,5.47-53.355,11.469c-20.012,7.119-37.497,25.549-37.497,25.549c-24.454,23.763-39.702,56.955-39.702,93.536
	v16.246v288.622h380.718V185.202H445.63z"/>
<g>
	<path style="fill:#CD2A00;" d="M121.734,243.237c-1.372-32.419-28.078-58.283-60.834-58.283C27.266,184.955,0,212.22,0,245.855
		c0,28.211,19.186,51.933,45.219,58.852v169.004H121.8V243.237H121.734z"/>
	<path style="fill:#CD2A00;" d="M390.266,243.237c1.372-32.419,28.078-58.283,60.834-58.283c33.635,0,60.9,27.266,60.9,60.9
		c0,28.211-19.186,51.933-45.219,58.852V473.71H390.2V243.237H390.266z"/>
</g>
<g>
	<rect x="121.798" y="336.798" style="fill:#FF5023;" width="268.395" height="136.914"/>
	<path style="fill:#FF5023;" d="M267.683,66.736h27.355c21.852,0,39.731,17.879,39.731,39.731v2.955
		c0,21.852-17.879,39.731-39.731,39.731h-78.805c-21.852,0-39.731-17.879-39.731-39.731v-2.955
		c0-21.852,17.879-39.731,39.731-39.731h9.257C225.49,66.736,267.683,66.736,267.683,66.736z"/>
</g>
<g>
	<path style="fill:#CD2A00;" d="M255.271,296.367c-4.369,0-7.911-3.542-7.911-7.911v-90.439c0-4.369,3.542-7.911,7.911-7.911
		c4.369,0,7.911,3.542,7.911,7.911v90.439C263.182,292.825,259.64,296.367,255.271,296.367z"/>
	<path style="fill:#CD2A00;" d="M199.474,293.305c-3.211,0-6.23-1.968-7.415-5.154l-21.873-58.785
		c-1.523-4.095,0.561-8.649,4.656-10.174c4.096-1.524,8.649,0.561,10.174,4.656l21.873,58.785c1.523,4.095-0.561,8.649-4.656,10.174
		C201.322,293.145,200.39,293.305,199.474,293.305z"/>
	<path style="fill:#CD2A00;" d="M311.797,293.305c-0.917,0-1.848-0.16-2.758-0.499c-4.095-1.524-6.179-6.079-4.656-10.174
		l21.873-58.785c1.524-4.095,6.08-6.179,10.174-4.656c4.095,1.524,6.179,6.079,4.656,10.174l-21.873,58.785
		C318.027,291.336,315.007,293.305,311.797,293.305z"/>
</g>
<g>
	<circle style="fill:#FF5023;" cx="451.098" cy="243.237" r="15.681"/>
	<circle style="fill:#FF5023;" cx="60.9" cy="243.237" r="15.681"/>
</g>
<rect x="108.909" y="319.51" style="opacity:0.21;fill:#CD2A00;enable-background:new    ;" width="292.845" height="70.777"/>
<path style="fill:#FF7956;" d="M182.13,288.456h188.028c11.068,0,20.041,8.973,20.041,20.041v37.67
	c0,6.796-5.509,12.306-12.306,12.306H134.107c-6.796,0-12.306-5.509-12.306-12.306v-37.67c0-11.068,8.973-20.041,20.041-20.041
	H182.13z"/>
<path style="opacity:0.16;fill:#781900;enable-background:new    ;" d="M450.893,184.955c-1.845,0-3.668,0.094-5.47,0.254v-0.007
	v-16.359c0-71.805-58.749-130.554-130.554-130.554h-40.67c71.805,0,130.554,58.749,130.554,130.554v16.359v0.007
	c1.803-0.16,3.625-0.254,5.47-0.254c33.635,0,60.9,27.266,60.9,60.9c0,28.211-19.186,51.933-45.219,58.852v169.004h19.519h21.151
	V304.707c26.034-6.919,45.219-30.641,45.219-58.852C511.793,212.22,484.528,184.955,450.893,184.955z"/>
<g>
</g>
<g>
</g>
<g>
</g>
<g>
</g>
<g>
</g>
<g>
</g>
<g>
</g>
<g>
</g>
<g>
</g>
<g>
</g>
<g>
</g>
<g>
</g>
<g>
</g>
<g>
</g>
<g>
</g>
</svg>
